<?xml version="1.0" encoding="utf-8"?>
<!-- Generator: Adobe Illustrator 21.1.0, SVG Export Plug-In . SVG Version: 6.00 Build 0)  -->
<svg version="1.1" id="Camada_1" xmlns="http://www.w3.org/2000/svg" xmlns:xlink="http://www.w3.org/1999/xlink" x="0px" y="0px"
	 viewBox="0 0 1000 453.1" style="enable-background:new 0 0 1000 453.1;" xml:space="preserve">
<g>
	<g>
		<path fill="#FFFFFF" d="M439.3,254.7c-0.5-0.8-1-1.7-1.6-2.6c-3.4-4.9-4.7-10.4-4-16.5c0.3-2,0.5-4,0.6-6c0.1-2-0.4-3.8-1.5-5.5
			c-1.1-2.1-1.5-4.2-1.2-6.1c0.3-2,1-3.8,2-5.5c1.4-2,2.4-4,3-6.1c0.6-2.1,1.2-4.1,1.8-6.1c1.8-5.6,0.1-10-5.1-13.3
			c-1.1-0.8-2.3-1.4-3.7-1.7c-1.4-0.3-2.7-0.6-4-1c-2.5-0.7-4.9-1.2-7.3-1.4c-2.4-0.2-4.6,0.8-6.6,3c-0.2,0.1-0.3,0.2-0.5,0.3
			c-0.2,0.1-0.3,0.2-0.5,0.3c-6.7,4.2-11.8,9.4-15.3,15.7c-0.5,1.1-1.3,2.2-2.3,3.2c-1,1-1.9,2-2.7,3.2c0.1-1.6,0.1-3.1,0.2-4.6
			c0.1-1.5,0.2-3,0.4-4.6c0.1-2-1-3.3-3.1-3.7c-1.3-0.2-2.6-0.3-4-0.3c-1.4,0-2.8,0.2-4.1,0.6c-1.8,0.7-3.5,1.5-5.1,2.4
			c-1.6,1-3.3,1.9-5.1,2.9c-0.8,0.4-1.5,0.8-2.2,1.2c-0.6,0.4-1.3,0.8-1.9,1.2c0-0.4,0.1-0.8,0.3-1c0.2-0.2,0.3-0.5,0.3-0.8
			c0.5-1.6,0.5-3.1,0-4.6c-0.5-1.5-0.1-2.8,1.2-3.9c1.3-1.1,1.3-2.6-0.1-4.4c-0.8-1.2-0.8-2.3-0.2-3.4c0.6-1.1,0.8-2.2,0.5-3.4
			c-1-3.4-3.2-5.8-6.7-7c-2.4-1-4.8-1.8-7.2-2.6c-2.5-0.8-4.9-1.6-7.2-2.4c-1.1-0.5-1.9-0.9-2.5-1.4c-0.6-0.5-1-0.9-1.3-1.4
			c-0.3-0.4-0.7-0.9-1.3-1.3c-0.5-0.5-1.4-0.9-2.5-1.4c-2.7-1.1-5.4-1-8,0.4c-2.7,1.3-3.9,3.1-3.6,5.3c0.3,2.2,0.2,4.3-0.2,6.4
			c-0.4,2-0.8,4.1-1.2,6.1c-0.4,3.1-0.9,6.1-1.6,9.1c-0.7,3-1.2,5.9-1.6,8.9c-0.1,1.2-0.2,2.3-0.3,3.5c-0.1,0-0.3,0.1-0.4,0.2
			c-0.6,0.2-1.2,0.5-1.8,0.7c-0.3,0.3-0.6,0.5-1,0.6c-0.3,0.1-0.6,0.3-1,0.4c-0.9,0.3-2.2,0.6-3.8,0.8c-1.6,0.3-3.2,0.5-4.8,0.7
			c-1.7,0.2-3.2,0.3-4.7,0.2c-1.5-0.1-2.7-0.3-3.6-0.6c-0.6-0.9-1.1-1.5-1.4-1.8c-3.9-7.9-9.9-12.4-18.2-13.2
			c-2.2-0.3-4.4-0.7-6.4-1.3c-2.1-0.6-4.1-1.5-6.2-2.8c-0.8-0.7-1.8-1.1-3.1-1.2c-1.3-0.1-2.4-0.2-3.3-0.3c-0.4,0-0.8,0-1.2,0
			c-0.8,0.3-1.5,0.5-2.3,0.5c-0.7,0-1.5,0.2-2.3,0.7c-0.3,0.3-0.8,1-1.4,2c-0.3,1.3-0.8,2.5-1.6,3.6c-0.8,1.1-1.5,2.2-2.1,3.4
			c-1.4,2.7-2.6,5.4-3.7,8.3c-1.1,2.9-2,5.8-2.7,8.7c-0.4,1.8-0.7,3.6-1,5.4c-0.3,0.3-0.6,0.6-0.9,0.9c-3,2.8-5.9,5.5-8.6,8
			c-2.7,2.5-5.1,4.7-7.1,6.6c-2,1.9-3.4,3.1-4.2,3.5c-0.4,0.2-0.7,0.3-1,0.3c-0.3,0-0.6,0.1-1,0.3c0-0.4,0-0.7,0.1-1.1
			c0.1-0.4,0.1-0.7,0.1-1.1c0.2-0.9,0.3-1.8,0.4-2.5c0.1-0.7,0.1-1.6,0.1-2.5c0-1.5-0.1-2.9-0.1-4.2c0-1.3-0.3-2.7-0.7-4.2
			c-0.5-1.8-0.9-3.7-1.3-5.6c-0.5-1.8-1.2-3.7-2.3-5.5c-1.5-2.9-2.9-5.8-4.3-8.7c-1.4-2.8-2.5-5.7-3.4-8.7c-0.5-2-1.3-4-2.4-5.8
			c-1.2-1.8-2.3-3.7-3.4-5.8c-1.1-2-2.3-3.9-3.5-5.6c-1.3-1.7-2.6-3.5-3.8-5.3c-1.3-1.8-2.6-3.6-3.9-5.3c-1.3-1.7-2.7-3.5-4.2-5.3
			c-4.1-4.7-8.1-9.1-11.9-13.2c-1.7-1.6-3.4-3.1-5.1-4.5c-1.7-1.4-3.4-2.8-5.2-4.2c-1.5-1.2-3.1-2.3-4.7-3.3
			c-1.6-0.9-3.3-1.5-5.2-1.8c-2.1-0.5-4.1-0.9-6.1-1.5c-2-0.5-4.1-1-6.2-1.5c-0.6-0.1-1.2-0.2-1.6,0c-0.4,0.1-0.7,0.2-0.9,0.2
			c-0.9,0.1-1.9,0.1-2.8,0.2c-1,0.4-1.9,1-2.7,1.6c-0.8,0.6-1.7,1.1-2.7,1.6c-0.8,0.4-8.4,17.5-9.3,19.5c-0.9,2-1.7,4.1-2.4,6.2
			c-1.2,3.4-2.3,6.9-3.3,10.3c-1,3.4-2,6.9-2.9,10.3c-0.4,0.8-0.6,1.4-0.8,2c-0.1,0.4-1.8,3.3-2.9,5.4c-0.9-0.9-2-1.5-3.3-2
			c-0.9-0.4-1.7-0.9-2.5-1.5c-0.8-0.6-1.3-1.3-1.6-2c-0.3-0.8-0.7-1.3-1.2-1.5c-0.5-0.2-1.3-0.3-2.3-0.5c-2.8-0.4-5.9-0.8-9.3-1.4
			c-0.9-0.3-1.4-0.2-1.7,0.1c-1.3-0.4-3.1-0.4-3.9-0.4c-6.5-2.3-5.9,4-6,4.6c0.2,1.7,0.4,3.3,0.6,4.9c0.2,1.6,0.5,3.3,0.8,4.9
			c0.5,2.6,1,5.1,1.6,7.6c0.6,2.5,1.1,5,1.6,7.6c0.3,1.5,0.6,3,0.9,4.6c0.3,1.6,0.7,3.1,1.1,4.5c0.9,2.9,1.6,5.9,2,8.8
			c0.5,2.9,1.1,5.8,1.8,8.6c0.5,2.9,1,5.7,1.5,8.6c0.5,2.9,0.9,5.7,1.5,8.4c0.7,3.5,1.4,7,2.1,10.5c0.7,3.5,1.4,7,2.1,10.5
			c0.6,2.4,1.1,4.8,1.5,7.2c0.4,2.4,0.8,4.7,1.4,7c0.7,3.1,1.5,6.1,2.5,9.1c0.9,3,1.7,6.1,2.2,9.2c0.3,1.6,0.9,3.2,1.9,4.6
			c1,1.4,1.6,3,1.9,4.6c0,0.3,0.2,0.5,0.6,0.7c1.7,1.1,3.5,2.1,5.2,2.9c1.7,0.8,3.7,1.3,5.8,1.3c1.8,0.1,3.5,0,5-0.3
			c1.5-0.3,3-0.7,4.6-1.3c0.6-0.2,1.1-0.6,1.5-1.2c0.4-0.6,0.9-1,1.5-1.4c-0.6-0.9-0.6-1.5-0.1-1.8c0.6-0.3,1.1-0.6,1.7-1
			c1.3-1.1,2.1-2.4,2.3-4.1c0.6-3,1.5-5.8,2.8-8.2c0.6-1.2,1.2-2.4,1.8-3.6c0.6-1.2,0.4-2.7-0.6-4.3c0-0.1,0-0.3-0.1-0.4
			c0.9-2.1,1.1-4.2,0.7-6.2c-0.4-2-0.6-4.1-0.7-6.2c0.1-1.3,0.1-2.6-0.1-3.9c-0.1-1.3-0.2-2.7-0.1-4.1c-0.1-1.3-0.1-2.5-0.1-3.7
			c0-1.2-0.1-2.5-0.2-3.9c-0.1-0.7-0.3-1.4-0.5-2.1c-0.2-0.7-0.4-1.5-0.7-2.3c-0.1-0.7-0.2-1.4-0.2-2.2c0-0.8-0.3-1.5-0.7-2.3
			c-0.7-1.4-1.2-3-1.4-4.6c-0.2-1.6-0.6-3.2-1.1-4.6c-0.6-1.4-0.9-3-1.1-4.6c-0.2-1.6-0.4-3.3-0.7-4.9c-0.1-0.8-0.2-1.6-0.2-2.5
			c0-0.8-0.2-1.6-0.6-2.4c-0.4-1.4-0.7-2.6-0.7-3.7c-2-4.6-4-9.2-6.1-13.8c0,0-0.1-0.1-0.1-0.1c-0.5-0.4-0.8-0.9-1.1-1.5
			c-1.1-1.8-2.1-3.6-2.8-5.3c-0.8-1.8-1.7-3.5-2.9-5.3c-1-1.7-1.7-3.4-2.1-5.3c0-0.1,0-0.2,0.1-0.4c0.3-2.1,0.6-4.1,1.1-6
			c0.5-1.9,0.9-3.8,1.4-5.7c0.8-3.4,1.8-6.7,3-10c1.2-3.3,2.4-6.5,3.6-9.8c0.5-1.9,1.2-3.7,2.3-5.3c1-1.7,2.1-3.3,3.2-4.8
			c1.5-2.1,2.9-4.2,4.3-6c1.3-1.8,2.8-3.9,4.3-6c1-1,1.7-1.5,2.2-1.4c0.5,0.1,1.3,0.7,2.4,2c1.8,2.1,3.2,4.3,4.4,6.6
			c1.2,2.3,2.3,4.6,3.5,6.9c0.9,1.4,1.6,3,2.1,4.6c0.5,1.7,1.2,3.2,2.1,4.6c1.8,3.1,3.3,6.2,4.6,9.3c1.3,3.1,2.4,6.3,3.4,9.6
			c1.2,3.3,2.2,6.6,2.9,9.9c0.8,3.3,1.5,6.6,2.3,9.9c1.2,4.4,1.9,8.8,2.1,13.2c0.2,4.4,0.2,8.7,0,13c0,3.2-0.1,6.4-0.3,9.7
			c-0.1,3.3-0.2,6.5-0.3,9.7c-0.1,2.1-0.1,4.1,0.1,6.1c0.2,2,0.4,4.1,0.7,6.1c0.1,2-0.5,3.7-1.8,4.8c-2.1,1.8-4.1,3.5-6.2,5.2
			c-2.1,1.7-4.1,3.4-6.1,5.2c-3.7,3.4-6.7,7-9,11c-2.3,4-4.1,8.2-5.3,12.8c-0.3,1.1-0.5,2.4-0.6,3.7c-0.1,1.3-0.2,2.7-0.3,4.2
			c0,0.4,0.2,0.9,0.7,1.5c0.4,0.6,0.8,1,1.2,1.2c1,0.3,1.9,0.8,2.8,1.5c0.9,0.7,1.9,1.4,2.9,2.1c1,0.5,1.9,1,2.8,1.4
			c0.9,0.4,1.8,0.8,2.8,1.1c1.6,0.7,3.2,1.2,4.8,1.5c1.6,0.4,3.3,0.8,5.1,1.3c2.3,0.6,5,0.9,8,0.7c1.3-0.3,2.4-0.6,3.4-1
			c0.9-0.4,2-0.8,3.1-1.3c1.7-0.5,3-1.3,3.9-2.4c0.9-1.2,1.8-2.4,2.7-3.7c0.9-1.5,1.8-3.1,2.7-4.9c0.9-1.7,1.8-3.3,2.7-4.9
			c0.4-0.8,0.7-1.5,1.1-2.1c0.4-0.7,1-1.2,2-1.6c0.6-0.2,1-1,1.4-2.3c0.3-1.1,0.7-2.2,1-3.3c0.3-1,0.7-2.2,1-3.5
			c0.1-1.1,0.6-2.1,1.5-2.9c0.8-0.8,0.9-1.9,0-3.4c0-0.6,0.2-0.8,0.5-0.9c1.1-0.8,1.7-1.9,1.6-3.4c0-0.4,0.1-0.7,0.3-1.1
			c0.2-0.4,0.4-0.8,0.5-1.1c0.4-0.6,0.7-1.1,1.1-1.6c0.4-0.5,0.7-1.1,1.1-1.9c0.5-1.1,1-2.3,1.3-3.5c0.3-1.2,0.8-2.4,1.3-3.5
			c0.5-1.1,1.1-2.2,1.8-3.3c0.6-1,1.4-2,2.4-3c0.9-1,1.8-1.9,2.6-2.9c0.8-1,1.3-2.2,1.7-3.7c0.5-2.8,1.9-5.1,4.2-6.8
			c1-0.6,3.3-2.6,7.1-6c3.8-3.4,7.8-7.2,12.1-11.1c1-0.9,1.9-1.8,2.9-2.7c0,0.7,0,1.3,0.1,2c0,1.3-0.1,2.6-0.3,4
			c-0.2,1.3-0.1,2.6,0.4,3.7c0.2,0.6,0.6,1.3,1.2,2.2c0.3,0.7,0.6,1.4,0.8,2c0.2,0.6,0.5,1.2,0.8,2c4,10.6,11.3,17.4,21.9,20.4
			c1.2,0.3,2.5,0.3,3.8,0c1.3-0.3,2.6-0.5,4-0.7c0.6,0,1.4-0.2,2.3-0.4c1.8-0.7,3.7-1.3,5.5-1.8c1.8-0.4,3.5-1.5,4.8-3.1
			c0.9-1.2,1.9-2.3,2.9-3.3c1-1,1.9-2.1,2.7-3.3c1.2-1.9,2.4-3.8,3.6-5.7c1.2-1.9,2.2-3.9,3.2-5.9c0.8-1.9,1.4-3.8,1.9-5.8
			c0.5-2,1-4,1.5-6c0.3-1.2,0.6-2.4,0.7-3.7c0.2-1.3,0.2-2.6,0-3.7c-0.1-1.5-0.3-2.9-0.5-4.3c-0.2-1.4-0.5-2.8-0.8-4.1
			c1.6,0.5,3.8,0.6,6.8,0.5c3-0.1,5.2-0.5,6.6-1.2c0.3-0.1,0.8-0.2,1.4-0.1c0.6,0.1,1.1,0,1.4-0.3c0.2-0.2,0.6-0.3,1-0.3
			c0,0.5-0.1,1.1-0.1,1.7c-0.2,4.1-0.5,8.3-0.9,12.5c-0.2,4.8-0.4,9.7-0.6,14.6c-0.2,4.9-0.4,9.8-0.6,14.6c-0.1,4.7,2.3,7.5,7.2,8.5
			c1.2,0.3,2.1,0.6,2.7,0.7c0.6,0.2,1.2,0.3,1.8,0.5c0.6,0.2,1.2,0.3,1.8,0.5c0.6,0.2,1.5,0.3,2.7,0.5c3.4,0.4,6.6-0.3,9.6-2.1
			c3-1.7,5.1-4.1,6.3-7c2.3-5.5,3.4-11.1,3.3-16.8c0-0.6,0-1.2,0.1-1.8c0-0.6,0.2-1.1,0.5-1.5c1.3-2.2,2.6-4.3,3.9-6.5
			c1.3-2.2,2.6-4.2,4-6.2c0.3-0.7,0.8-1.4,1.5-2c0.6-0.6,1.2-1.3,1.7-2c1.6-2,3.2-4.1,4.7-6.2c1.5-2.1,3-4.3,4.5-6.4
			c0.2,0.2,0.3,0.2,0.5,0.2c0.2,0,0.3,0.1,0.5,0.2c-0.2,1.9-0.5,3.8-0.7,5.6c-0.2,1.8-0.4,3.7-0.5,5.6c-0.6,7.7-1.9,15-3.9,21.8
			c-0.4,1.6-0.6,3.3-0.7,5.1c-0.1,1.8,0.3,3.6,1.2,5.2c0.7,0.9,1.5,1.5,2.2,1.6c0.8,0.2,1.6,0.2,2.5,0.1c1.5,0.1,2.6-0.8,3.1-2.5
			c0.3-2.3,1-4.8,2.2-7.4c1.4-3.6,3.1-7,5.1-10.2c2-3.2,4.2-6.4,6.5-9.5c3.5-4.7,6.5-9.3,8.9-13.8c2.1-3.3,4-6.6,5.7-10
			c1.8-3.4,4.3-6.5,7.6-9.2c0,0.4,0,0.8,0.1,1.1c0.1,0.3,0,0.6-0.2,0.9c-1,4.3-2,8.6-3,12.9c-0.9,4.3-1.4,8.6-1.3,13
			c-0.1,1.6-0.3,3.2-0.5,4.9c-0.3,1.7-0.5,3.4-0.8,5.1c-0.9,4.6-1.3,9.2-1.1,13.7c0.1,4.5,1.1,9,2.8,13.7c0.9,2.5,2.2,4.8,3.8,6.8
			c1.6,2,3.6,3.4,6.2,4.3c2.6,0.9,5,1.5,7.4,1.9c2.4,0.4,4.9-0.2,7.6-1.8c2.1-1.3,3.4-2.7,4.1-4c0.6-1.3,0.4-3.1-0.7-5.2
			C440.3,256.4,439.8,255.5,439.3,254.7z M173.3,291.6c0,3.7-1.1,7.1-3.2,10.2c-1.1,1.5-2.2,3.1-3.4,4.8c-1.2,1.6-2.8,2.8-4.9,3.5
			c-2.6,0.9-4.3,0.1-5-2.2c-0.9-2.4-1-4.4-0.3-6c0.7-1.6,1.4-3.2,2-4.7c0.2-0.4,0.4-0.7,0.7-0.9c0.3-0.2,0.5-0.5,0.7-0.9
			c0.6-2.8,1.8-5.2,3.7-7.1c1.8-1.9,3.9-3.6,6.1-5.2c0.6-0.4,1-0.9,1.4-1.6c0.4-0.7,0.7-1.3,1.1-1.9c0.2-0.2,0.4-0.3,0.6-0.3
			c0.2,0,0.4-0.1,0.6-0.3c0,0.4,0.1,0.6,0.2,0.7c0.1,0.1,0.2,0.3,0.2,0.7C173.4,284.1,173.3,287.8,173.3,291.6z M274.3,200.5
			c0.3-1.2,0.9-1.9,1.9-2.2c0.9-0.3,1.9-0.2,2.8,0.2c2.2,0.9,4.3,2.1,6.4,3.7c0.6,0.4,1.1,1,1.5,1.5c0.4,0.6,0.7,1.2,1.1,2
			c0.3,0.6,0.7,1.2,1.1,1.8c0.4,0.6,0.8,1.2,1.3,2c-2.7,0.3-5.2,0.2-7.5-0.1c-2.4-0.4-4.6-0.9-6.8-1.6c-0.8-0.3-1.4-1.2-1.8-2.8
			C273.8,203.3,273.8,201.9,274.3,200.5z M294.7,230.2c-0.2,1.6-0.5,2.9-0.9,3.9c-0.2,0.4-0.3,0.9-0.5,1.3c-0.2,0.4-0.3,0.9-0.5,1.3
			c-0.3,3.4-1.5,6.2-3.5,8.7c-2,2.4-3.9,4.9-5.6,7.3c-0.3,0.6-0.7,1.1-1.2,1.4c-0.5,0.4-1.1,0.8-1.8,1.4c-0.8-0.7-1.5-1.4-2.2-1.9
			c-0.7-0.5-1.2-1.1-1.5-1.9c-0.8-2.5-1.6-4.9-2.3-7.3c-0.8-2.4-1.3-4.9-1.7-7.3c-0.3-2.5-0.3-5.1,0.1-7.8c0.4-2.7,0.6-5.3,0.8-7.8
			c0.1-1.6,0.2-3.2,0.2-4.7c0-1.5,0-3.1,0-4.7c1.3,0.3,2.5,0.5,3.9,0.6c1.3,0.1,2.6,0.4,3.9,0.7c1.3,0.1,2.5,0.3,3.6,0.3
			c1.2,0.1,2.4,0.1,3.6,0.1c0.9,0,1.7,0.1,2.3,0.3c0.6,0.2,1.2,0.8,1.6,1.9c0.5,1,0.8,2.3,1.2,4c0.3,1.6,0.5,3.3,0.6,5
			C294.9,226.9,294.9,228.6,294.7,230.2z"/>
		<path fill="#FFFFFF" d="M698.6,292.6c-1.5-1.2-3.2-2.2-5.1-2.9c-1.9-0.7-3.3-2.3-4.3-4.6c-1-2.3-2.1-4.6-3.3-6.8c-1.3-2.2-2.5-4.5-3.6-6.8
			c-0.9-1.7-1.7-3.5-2.4-5.3c-0.7-1.8-1.5-3.6-2.4-5.3c-1.6-3.4-3.1-6.6-4.3-9.5c-0.6-1.7-1.1-3.4-1.4-5.1c-0.4-1.7-0.8-3.5-1.4-5.3
			c-0.7-2.6-1.2-5.2-1.5-7.9c-0.3-2.7-0.5-5.4-0.6-8.2c0-1.9,0.3-4.4,0.8-7.4c0.5-3,0.7-5.5,0.8-7.4c-0.1-1.8-0.3-3.6-0.5-5.3
			c-0.2-1.8-0.3-3.6-0.3-5.3c0.1-1.3,0.2-2.7,0.3-4.2c0.1-1.5,0.8-2.7,2.2-3.7c0.9-0.9,1.6-1.9,2.2-2.9c1.3-1.8,2.6-3.6,3.8-5.3
			c1.2-1.8,2.5-3.6,3.8-5.6c1.7-2.9,3.5-5.8,5.3-8.7c1.5-2.2,3-4.3,4.3-6.5c1.4-2.1,2.4-4.6,3-7.3c0.6-2.9,1.6-5.6,3-8.3
			c1.3-2.6,2.3-5.5,2.8-8.5c0.4-1.9,0.8-3.7,1.2-5.6c0.5-1.9,0-3.8-1.4-5.7c-0.9-1.1-1.6-2.3-2.3-3.6c-0.7-1.2-1.9-2.1-3.6-2.6
			c-0.9-0.4-1.6-0.9-2-1.5c-2.2-3.5-5.6-4.8-9.9-3.9c-0.8,0.2-2.2,0.2-3.9,0c-0.5,0.1-1,0.2-1.4,0.2c-0.4,0-0.9,0.1-1.4,0.2
			c-1.2,0.1-2.5,0.2-3.7,0.3c-0.8,0.1-1.6,0.1-2.3,0.1c-0.7,0-1.3,0.2-1.7,0.6c-2.6,3.1-5.3,6.2-8.1,9.1c-2.8,3-5,6.4-6.7,10.2
			c-1.2,2.2-2.5,4.4-3.9,6.4c-1.4,2-2.5,4.2-3.4,6.6c-1.7,4.6-3.2,9.2-4.5,13.8c-1.3,4.7-2.5,9.4-3.8,14.1c-0.7,2.4-1.2,5-1.5,7.6
			c-0.3,2.6-0.7,5.2-1,7.6c-0.2,1-0.3,2-0.3,3.1c0.1,0.9,0.1,1.9,0,2.8c-0.7,0.6-1.4,1-2,1.2c-0.2,0-0.8,0.2-1.8,0.7
			c-1.1,0.5-2.2,1.1-3.4,1.7c-1.2,0.6-2.9,1.5-5,2.4c-0.3,0.1-0.4,0.2-0.1,0.2c0.2,0,0.2,0.1-0.1,0.2c-0.3,0.3-0.7,0.5-1.2,0.6
			c-0.5,0.1-0.9,0.3-1.2,0.6c-0.2,0.1-0.3,0.2-0.5,0.3c-0.2,0.1-0.3,0.2-0.5,0.5c-0.3,0-0.6,0.1-1,0.4c0,0.1,0,0.3,0,0.4
			c-0.2,0.1-0.5,0.3-1.1,0.5c-0.6,0.2-0.9,0.3-1.1,0.5c-0.8,0.5-1.4,0.9-1.6,1.2c-0.3,0.3-0.7,0.8-1.4,1.4c-0.3,0.2-0.6,0.4-0.7,0.5
			c0.2-0.2,0.2-0.3,0.3-0.4c0-0.1-0.4,0.1-1.2,0.5c-0.8,0.7-1.8,0.7-2.8,0c-1.9-1.6-3.8-3.1-5.8-4.6c-1.9-1.5-3.9-2.9-5.8-4.4
			c-0.8-0.5-1.5-0.9-2.1-1.4c-0.7-0.4-1.4-0.8-2.2-1.1c-2.6-1.8-5.1-3.5-7.7-5.2c-2.6-1.7-5.2-3.3-8-4.8c-1.8-0.8-3.8-1.5-5.9-2.1
			c-2.1-0.6-4.2-1.1-6.4-1.7c0.8-0.8,1.7-1.6,2.5-2.4c0.8-0.8,1.7-1.5,2.5-2.2c1-1,2-2.1,3-3.1c0.5-0.6,1-1,1.5-1.4
			c0.5-0.4,1-0.8,1.5-1.2c1.2-1.1,2.5-1.9,3.8-2.5c1.4-0.6,2.5-1.6,3.4-3c0.4-0.7,0.8-1.3,1.4-1.7c0.6-0.4,1.1-0.8,1.6-1.2
			c0.8-0.7,1.7-1.3,2.6-1.8c0.9-0.5,1.6-1.4,2-2.5c0-0.3,0.2-0.5,0.4-0.7c0.3-0.2,0.5-0.4,0.9-0.7c3.2-2.4,5.5-5.6,6.9-9.6
			c0.8-2.4,1.2-4.9,1.1-7.3c-0.1-2.4-0.8-4.9-2-7.3c-0.3-0.5-0.6-0.9-0.9-1.4c-0.3-0.5-0.7-0.8-1.1-1.2c-2.2-1.3-4.8-2.7-8-4
			c-0.8-0.3-1.6-0.7-2.5-0.9c-0.9-0.3-1.7-0.1-2.6,0.6c-0.5,0.3-1.4,0.5-2.7,0.7c-1.3,0.2-2.7,0.4-4.3,0.5c-1.5,0.1-3,0.4-4.3,1
			c-1.3,0.4-2.6,0.8-3.7,1.4c-1.2,0.6-2.4,1.2-3.7,1.9c-4,2-7.5,4.3-10.6,6.9c-3.1,2.6-6,5.6-8.7,8.8c-1.3,1.4-2.5,2.8-3.5,4.2
			c-1,1.4-2.1,2.8-3.3,4.2c-0.4-2.4-0.4-4.4-0.2-6.2c0.1-2-0.6-3.6-2.2-4.7c-0.8-0.8-1.4-1.5-1.8-2.3c-0.4-0.8-1.1-1.5-1.8-2.3
			c-0.9-1.1-1.8-2-2.8-3c-0.9-0.9-1.9-1.8-3-2.5c-0.8-0.5-1.7-0.8-2.9-1c-1.1-0.2-2.1-0.4-2.9-0.8c0-0.3,0.1-0.6,0.1-0.9
			c0.1-0.3,0.1-0.4-0.1-0.4c-1.8-0.5-3.5-0.8-5.3-0.8c-0.6,0-1.2,0-1.8,0.2c-0.6,0.1-1.2,0.2-1.8,0.2c-1.6,0.2-3.2,0.4-4.7,0.5
			c-1.5,0.1-3.1,0.1-4.7-0.1c-1.9-0.2-3.3,0.1-4.1,1c-0.8,0.9-1.5,2.1-2,3.7c2.2,0.6,3.2,1.8,3,3.4c0,0.9,0,1.8-0.1,2.7
			c0,1-0.1,1.9-0.3,2.7c-0.4,4.2-0.8,8.5-1.1,12.9c-0.3,4.4-0.2,8.7,0.1,13c0.4,4.3,0.8,8.6,1.2,13c0.4,4.4,0.9,8.8,1.4,13.2
			c0.2,2.9,0.5,5.9,0.8,8.8c0.3,2.9,0.7,5.9,1.3,8.8c0.5,2.9,1.1,5.8,1.6,8.6c0.5,2.8,1.1,5.6,1.8,8.4c1.1,4.7,2.2,9.4,3.3,14
			c1.1,4.6,2.2,9.3,3.3,14c0.4,2.2,1,4.3,1.9,6.3c0.9,2,2.2,3.8,3.8,5.5c0.3,0.3,0.7,0.7,1.1,1c0.4,0.4,0.4,0.9-0.1,1.6
			c0.1,0.2,0.3,0.4,0.4,0.7c0.9-0.3,1.8-0.5,2.6-0.8c0.8-0.3,1.6-0.5,2.4-0.8c1.1-0.5,1.8-1.3,2.2-2.2c0.4-0.9,0.8-1.9,1.1-2.9
			c0.7-1.9,1.4-3.7,2.2-5.5c0.8-1.8,1-3.7,0.6-5.8c-0.3-1.3-0.2-2.7,0.1-4.2c0.3-1.4,0.6-2.8,1-4.1c0.2-0.7,0.5-1.5,1-2.3
			c0.5-0.8,0.8-1.5,0.8-2.3c0.1-2.2,0.7-4,2-5.5c1.2-1.5,2.5-2.9,3.8-4.1c1.5-1.5,2.8-3.1,3.9-4.5c1.1-1.5,1.6-3.3,1.4-5.3
			c-0.1-1.6-0.2-3.2-0.2-4.7c-0.1-1.5-0.2-3.1-0.2-4.7c-0.2-1.6-0.4-3.2-0.5-4.7c-0.1-1.5-0.2-3.1-0.5-4.7c-0.2-1.5-0.5-2.9-0.9-4.2
			c-0.3-1.3-0.6-2.7-0.9-4.2c-0.3-1-0.5-2.1-0.6-3.1c-0.1-1-0.3-2.1-0.6-3.1c0.3,0,0.6,0.2,0.9,0.5c1.5,2,3.2,2.6,5.3,1.8
			c1.4-0.5,2.7-0.5,3.8,0c0.6,0.3,1.5,0.7,2.8,1c2.6,1.3,5.2,2.4,7.9,3.4c2.7,1,5.1,2.5,7.4,4.7c5.3,5.4,9.1,11.6,11.5,18.5
			c0.4,1.2,0.7,2.1,0.9,2.7c0.2,0.6,0.2,1,0.1,1.3c-0.1,0.3-0.4,0.6-0.9,0.9c-0.5,0.3-1.2,0.9-2.2,1.7c-0.3,0.3-0.7,0.5-1,0.8
			c-0.3,0.3-0.7,0.5-1,0.8c-8,4.9-14.2,11.2-18.6,18.9c-1.7,2.8-3.3,5.8-4.7,8.8c-1.5,3-2.9,5.9-4.4,8.8c-0.7,1.4-1.3,2.6-1.8,3.5
			c-0.5,0.9-0.9,1.8-1.3,2.8c-0.4,0.9-0.6,1.9-0.8,2.9c-0.2,1-0.4,2.2-0.6,3.7c-0.3,2.9-0.3,6.2,0,9.9c0.2,2.6,0.9,5,2.1,7.1
			c1,1.5,2.2,2.7,3.6,3.7c1.4,1,3.1,1.6,5.1,1.8c1.6,0.1,3.1,0.2,4.7,0.3c1.5-0.1,3,0,4.5,0.3c1.5,0.2,2.9,0.2,4.3-0.2
			c2.1-0.6,4.3-1.3,6.4-2c2.1-0.7,4.1-2.1,5.9-4c1-1.1,2.3-2.3,4-3.5c1.7-1.2,2.9-2.4,3.8-3.7c0.4-0.7,0.8-1.3,1.4-1.7
			c0.6-0.4,1.1-0.9,1.6-1.6c0.9-1.4,1.5-2.2,1.9-2.5c0.4-0.3,1.4-0.8,2.9-1.5c1.3-0.8,2.2-1.6,2.9-2.5c0.7-0.9,1.7-1.9,2.9-3
			c1.4-1.1,2.9-2.1,4.3-3.1c1.4-1,3-1.9,4.8-2.6c2-0.7,3.9-1.7,5.7-2.8c0.6-0.4,1.2-0.9,1.8-1.4c0.6-0.5,1-1.2,1.2-1.9
			c0.5-1.9,0.8-3.7,1.1-5.4c0.3-1.7,0.6-3.5,0.9-5.4c0.1-1.2,0.1-2.3,0.2-3.3c0-1,0-2.1-0.1-3.1c0-1.9,0-3.8,0.1-5.6
			c0.1-1.8,0-3.7-0.1-5.6c-0.1-1.3-0.1-2.7-0.2-4.1c-0.1-1.4-0.3-2.8-0.5-4.1c-0.2-1.8-0.5-3.5-1-5.3c-0.5-1.7-1.3-3.3-2.4-4.7
			c-1.3-1.4-1.8-2.9-1.5-4.3c0.2-0.4,0.5-0.7,1-0.8c0.5-0.1,0.8-0.4,1-0.8c0.2-0.3,0.5-0.5,0.9-0.6c0.4-0.1,0.7-0.3,0.9-0.6
			c0.3-0.4,0.6-0.7,0.6-0.7c0.1-0.1,0.3-0.2,0.6-0.5c0.7-0.4,1.4-0.9,2.2-1.6c0.5-0.3,1-0.5,1.5-0.8c0.5-0.2,1-0.6,1.5-1
			c2.9-1.7,5.9-3.4,8.8-5.1c0,0.2-0.1,0.5-0.1,0.7c-0.3,2.1-0.5,4.5-0.8,7.3c-0.1,0-0.2,0-0.2,0c0.1,0.9,0.1,2.1,0,3.6
			c-0.1,1.5-0.1,3.1-0.2,4.6c-0.1,1.5-0.1,3,0,4.5c0,1.5,0.2,2.7,0.4,3.6c0.5,3.1,0.8,6.1,0.9,8.9c0.1,2.8,0.5,5.9,1.3,9.4
			c1.1,6.6,2.5,12.3,4.1,17.3c1.6,5,3.7,10.3,6.2,15.8c1.5,3.4,3.2,6.6,5.1,9.6c1.9,3,4.2,5.9,7,8.5c1.2,1.2,2.8,2.2,4.5,3.2
			c1.8,1,3.7,1.9,5.7,2.6c2,0.7,4.1,1.4,6.1,1.9c2.1,0.5,3.9,0.9,5.5,1.1c1.4,0,2.8-0.1,4.2-0.4c1.5-0.3,2.9-0.5,4.3-0.6
			c4-0.9,7.9-1.7,11.9-2.6c2.3-0.5,3.6-1.9,3.9-4.4c0.1-1.9-0.4-3.3-1.5-4.2C700.8,294.4,699.7,293.5,698.6,292.6z M669,181.7
			c0-1.2,0.1-2.4,0.2-3.6c0.1-1,0.3-2,0.5-2.9c0.3-0.9,0.5-1.9,0.8-2.9c0.3-1.1,0.5-2.2,0.6-3.2c0.1-1,0.4-2,0.8-3
			c0.4-1.1,1.1-2.1,1.9-3c0.8-0.9,1.4-1.9,1.9-3c0.8-1.5,1.5-3,2-4.5c0.6-1.5,1.3-2.9,2.3-4.3c1-1.5,1.3-3,1.1-4.3
			c-0.3-1.3-0.1-2.9,0.4-4.6c0.5-2,1.3-3.6,2.2-4.8c0.9-1.2,1.8-2.8,2.7-4.8c0.5-1.4,0.7-2.6,0.6-3.6c-0.1-1,0.5-2.1,1.6-3.5
			c0.4,0.3,0.9,0.7,1.5,0.9c0.5,0.3,1,0.7,1.5,1.2c2.8,2.9,3.3,6.6,1.5,11c-0.5,1.1-0.7,2.2-0.6,3.4c0,1.1-0.2,2.2-0.6,3.1
			c-0.7,1.8-1.4,3.6-2.3,5.3c-0.8,1.7-1.7,3.3-2.7,5c-2,3.8-3.9,7.5-5.8,11.3c-1.8,3.8-3.8,7.5-6,11.1c-0.8,1.4-1.7,2.7-2.8,3.9
			c-1.1,1.2-2.2,2.6-3.3,4.1C668.9,184.3,668.9,183,669,181.7z M554.5,173.3c-1.4,1.5-2.8,3-4.3,4.4c-1.5,1.4-3,2.8-4.5,4.2
			c-0.8,0.7-1.7,1.3-2.6,1.9c-0.9,0.5-1.7,1.2-2.6,1.9c-0.7,0.4-1.2,0.9-1.6,1.6c-0.4,0.6-1,1.3-1.6,2c-0.3-1.3-0.4-2.5-0.5-3.7
			c-0.1-1.1-0.2-2.2-0.3-3.4c-0.3-1.2-0.4-2.3-0.4-3.3c0-1-0.2-2.1-0.5-3.1c0-0.3,0-0.6,0-0.9c0.7-1.1,1.3-2.2,1.8-3.3
			c0.5-1.1,1.1-2.2,1.8-3.3c1.5-2.7,3.8-5.4,6.8-8c0.7-0.7,1.3-1.5,1.8-2.3c0.5-0.9,1-1.7,1.3-2.6c0.7-1.7,1.7-3.2,3-4.5
			c1.3-1.2,2.6-2.6,3.9-4c0.2-0.3,0.3-0.5,0.5-0.6c0.2-0.1,0.3-0.3,0.5-0.6c0.9-2,2.2-3.4,3.8-4.2c1.1-0.5,2.2-1,3.2-1.6
			c1-0.5,2.1-1.1,3.2-1.6c0.8-0.4,1.7-0.7,2.7-0.9c1-0.2,1.9-0.7,2.7-1.4c1.3-0.9,2.8-1.4,4.3-1.5c1.5-0.1,3.2,0,4.9,0.3
			c-1.3,2.3-2.5,4.4-3.7,6.5c-1.2,2.1-2.5,4.1-3.9,6c-3.3,4.5-6.7,8.9-10,13.2C561.2,164.6,557.9,168.9,554.5,173.3z M580.9,245.2
			c0,2.5,0,4.9,0,7.4c0,2.4-0.2,4.9-0.7,7.3c-0.4,1.3-0.9,2.6-1.6,3.9c-0.7,1.3-1.4,2.6-2.1,4c-0.9,2-1.9,4-2.9,6c-1,2-2,4-2.9,6
			c-0.9,2-1.4,4.2-1.5,6.5c-0.3,3.2-1.3,5.5-2.9,6.7c-1.6,1.3-3.6,2.9-5.9,4.8c-0.9,0.7-2,1-3.3,0.9c-1.3-0.1-2.2-0.7-2.9-1.9
			c-0.7-0.9-1.2-1.9-1.6-2.9c-0.4-1.1-0.7-2.2-1-3.3c-0.4-1.8-0.5-3.8-0.4-5.9c0-0.7,0.1-1.2,0.1-1.4c0-0.2,0-0.4,0-0.5
			c0-0.1,0-0.3,0-0.5c0-0.2,0-0.7,0.1-1.4c0.1-2.2,0.6-4.3,1.4-6.2c0.8-1.9,1.6-3.9,2.5-5.9c1.4-3.1,2.8-6.3,4.2-9.3
			c1.4-3.1,2.9-6,4.6-8.9c1.2-2,2.5-3.9,4-5.7c1.5-1.8,3.4-3.4,5.6-4.7c1.1-0.7,2.2-1.4,3.2-2.3c1-0.9,1.7-2,2.3-3.3
			c0.2-0.1,0.3-0.2,0.5-0.3c0.2-0.1,0.4-0.2,0.7-0.5C580.8,237.8,581,241.7,580.9,245.2z"/>
		<path fill="#FFFFFF" d="M934.5,253.1c-0.7-3-2.1-5.8-4.1-8.3c-1.9-2.2-4.1-4-6.6-5.4c-2.5-1.3-5.1-2.2-7.8-2.6c-2.8-0.4-5.5-0.3-8.2,0.3
			c-2.7,0.6-5.3,1.6-7.7,3.2c-1.7,1.1-3.2,2.4-4.6,3.8c-1.4,1.4-2.9,2.6-4.4,3.8c0.7-2.5,1.2-5.1,1.7-7.6c0.4-2.5,0.8-5.1,1.2-7.7
			c0.3-1.6,0.6-3.2,0.9-5c0.3-1.7,0.5-3.5,0.7-5.2c0.4-2,1-3.6,1.9-4.8c0.2-0.3,0.6-0.4,1.2-0.5c0.6-0.1,1.1-0.2,1.7-0.4
			c0.7-0.2,1.3-0.5,1.9-1c1-0.8,2-1.6,3.1-2.4c1-0.8,2.1-1.6,3.1-2.6c1-1,2-1.9,3-2.8c1-0.9,2-1.9,3.1-3.1c1.1-1.1,2-2.4,2.7-3.7
			c0.8-1.3,1.6-2.7,2.5-3.9c1.2-1.6,2.2-3.1,3.2-4.6c1-1.5,1.4-3.4,1.2-5.7c-0.1-2,0.1-3.9,0.5-5.7c0.4-1.9,0.2-3.8-0.5-5.9
			c-1-2.9-2.2-5.6-3.6-7.9c-0.6-1.3-1.2-2.6-1.8-3.7c-0.7-1.2-1.3-2.4-1.8-3.7c-1-1.8-1.9-3.5-3-5.1c-1-1.6-2.6-2.9-4.7-4.1
			c-2.3-1.1-4.5-2.5-6.6-4.5c-1-0.9-2-1.7-3.2-2.4c-1.1-0.7-2.3-1.1-3.6-1.2c-1.8-0.2-3.5-0.4-5.1-0.6c-1.6-0.2-3.3-0.3-4.9-0.3
			c-1.2-0.1-2.2,0-3.1,0.1c-0.9,0.1-1.4,0.9-1.3,2.4c0.1,0.2,0,0.4-0.4,0.6c-0.6,1.5-1.1,3.1-1.5,4.7c-0.4,1.6-0.6,3.3-0.6,5.1
			c0.1,1.2,0,2.4-0.2,3.6c-0.2,1.2-0.6,2.4-1.2,3.5c-1.4,3-2.4,6.1-3.1,9.1c-0.7,3.1-1.1,6.2-1.4,9.4c-0.1,2.1-0.5,4.2-1.2,6.3
			c-0.7,2.1-1.4,4.2-1.9,6.3c-0.5,1.8-1,3.6-1.5,5.3c-0.5,1.7-1,3.4-1.4,5.1c-0.5,1.6-0.8,3.2-1,4.9c-0.2,1.7-0.6,3.4-1,4.9
			c-0.3,1.6-0.7,3.2-1.2,4.8c-0.5,1.6-0.8,3.2-1.1,4.8c-0.3,1.7-0.5,3.5-0.6,5.3c-0.1,1.8-0.3,3.6-0.7,5.4c-0.2,2.8-0.6,5.7-1.1,8.5
			c-2.9,3.5-6.2,6.8-10.1,10c-4.4,3.6-8.2,7.4-11.4,11.3c-0.8,1-1.8,1.9-3.1,2.6c-1.2,0.7-2.3,1.4-3.2,2.1c-1.4,0.9-2.3,1.4-2.7,1.5
			c-0.4,0.1-1.3,0.4-2.6,0.9c-1.5,0.5-2.5,0.2-2.9-0.7c-0.5-1-1.2-1.9-2.1-2.8c-0.5-0.5-1-1.3-1.4-2.2c-0.4-1-0.7-1.8-0.8-2.6
			c-0.4-1.4-0.5-2.4-0.4-3c0.1-0.6-0.1-1.5-0.7-2.8c-1.6-3.7-2.8-7.5-3.6-11.4c-0.8-3.9-1.1-8-0.7-12.2c0.2-1.9,0.4-3.7,0.8-5.4
			c0.4-1.7,0.6-3.5,0.8-5.4c0.5-3,1-5.9,1.5-8.9c0.2-1.2,0.5-2,1-2.6c0.5-0.6,1.1-1,1.8-1.3c0.7-0.2,1.4-0.4,2.1-0.5
			c0.7-0.1,1.4-0.2,2.1-0.4c2.2-0.9,4.4-1.3,6.5-1.1c2,0.2,3.8,1.1,5.3,2.7c1.4,1.4,2.3,3.4,2.9,5.9c0.6,2.5-0.1,4.6-2.2,6.3
			c-0.6,0.5-1.2,0.9-1.8,1.2c-0.6,0.3-1.1,0.8-1.6,1.5c-0.4,0.7-0.4,1.3,0.1,2c0.4,0.7,0.9,1.1,1.7,1.2c1.8,0.5,3.6-0.1,5.2-1.7
			c1.6-1.6,3.2-3,4.7-4.1c1.5-1.1,2.3-2.3,2.5-3.8c0.2-1.5,0.1-2.7-0.2-3.6c-1.2-3.2-2.9-5.7-5.2-7.5c-2.3-1.8-5.1-3.5-8.5-5.2
			c-1.8-0.8-3.4-1.4-4.8-1.8c-1.4-0.5-3.1-0.7-5.2-0.8c-1.9-0.3-3.8-0.3-5.8-0.1c-1,0.1-1.8,0.2-2.5,0.3c-0.7,0-1.4,0.2-2.3,0.5
			c-0.5,0.3-0.9,0.6-1.4,0.9c-0.7,0.3-1.2,0.7-1.5,1.1c-0.3,0.4-0.7,0.8-1.3,1.1c-1.5,1.4-2.9,2.6-4.2,3.5c-1.3,1-2.6,2.2-3.9,3.6
			c-2.5,2.9-4.8,5.8-6.9,8.9c-2.1,3.1-3.8,6.4-5.1,9.9c-1.9,4.7-2.9,9.5-3.1,14.4c-2.3,3.7-4.8,6.9-7.4,9.6c-2.9,3-6,6.5-9.2,10.3
			c-0.6,0.7-1.2,1.3-1.8,2c-0.6,0.6-1.4,0.9-2.3,0.8c-0.5-0.1-0.9-0.3-1.3-0.9c-0.1-0.3-0.1-0.9,0-1.8c0.7-4.5,0.9-9,0.7-13.5
			c-0.2-4.5-0.5-9.1-1-13.6c-0.5-4.5-0.8-8.9-1-13.2c-0.2-4.3-0.1-8.6,0.5-12.8c0.3-2.2,0.9-4.3,1.6-6.3c0.8-2,1.3-4.1,1.6-6.3
			c0.3-1.7,0-3.7-0.8-6c-0.8-2.3-1.9-4.4-3.3-6.6c-1.4-2.1-3-4-4.8-5.5c-1.8-1.6-3.6-2.5-5.5-2.8c-0.9-0.1-1.8-0.4-2.7-0.9
			c-0.8-0.5-1.6-0.9-2.4-1.3c-1.1-0.4-2.3-1-3.7-1.8c-1.4-0.8-2.7-1.2-3.8-1.4c-1.3-0.2-2.4,0.1-3.4,0.7c-1,0.6-1.7,1.5-2.1,2.6
			c0.6,1.3,0.9,2.3,0.8,3.2c-0.2,1.6-0.5,3.2-1,4.7c-0.4,1.2-0.7,2.5-1,3.7c-1.6-1.4-3.1-2.9-4.9-4.3c-2.4-2-5-3.3-7.8-3.7
			c-4-0.6-9.3-0.3-13.3,3.2c-4,3.6-8.2,7.4-11.4,12.7c-3.2,5.3-5.3,11.5-7.4,17.4c-2.1,5.9-1.9,12-2.3,16c-0.3,3.8-0.2,7.7,0.5,11.7
			c0.7,4,1.7,7.6,3.2,11c1.5,3.4,3.5,6.3,6,8.7c2.5,2.4,5.4,3.9,8.8,4.4c2.2,0.4,4.7-0.4,7.4-2.2c2.7-1.8,5.4-4.1,8.1-6.9
			c2.7-2.8,5.3-5.6,7.8-8.5c2.2-2.5,4.1-4.6,5.6-6.5c0,1.2,0,2.4,0,3.7c0,4.1,0.1,8.2,0.3,12.3c0.2,4.2,0.9,8,1.9,11.7
			c1.1,3.6,2.8,6.7,5.2,9.1c2.4,2.5,5.8,4,10.2,4.6c3,0.4,5.8,0.1,8.4-1.1c2.6-1.2,4.6-3.1,6.1-5.6c1.2-1,2.5-1.9,3.8-2.5
			c1.3-0.7,2.4-1.6,3.5-2.6c1.2-1,2.9-2.7,5-5.1c2.1-2.4,4.2-5,6.2-7.8c0.8-1.1,1.6-2.2,2.4-3.3c0.5,2.7,1.3,5.2,2.4,7.6
			c1.4,3.2,2.8,6.3,4.2,9.5c1.4,3.1,3.7,5.7,6.8,7.9c7.5,4.6,15.4,5.1,24,1.4c1.5-0.5,3-1,4.5-1.5c1.5-0.5,2.8-1.3,3.9-2.3
			c1.9-1.7,3.9-3.2,6-4.5c2.1-1.3,4.2-2.9,6.3-4.9c2.1-1.9,4.5-3.9,7.4-6.2c2.4-1.9,4.4-3.8,5.9-5.6c-0.1,0.7-0.1,1.4-0.2,2.1
			c-0.1,1.4-0.2,2.8-0.3,4.3c-0.2,2.8-0.4,5.5-0.7,8.1c-0.3,2.6-0.6,5.3-0.9,7.9c-0.2,2.8-0.6,5.5-1.1,8.2c-0.5,2.7-0.9,5.4-1.3,8.1
			c-0.6,2.9-0.9,5.7-0.9,8.5c0,0.7,0.1,1.5,0.4,2.3c0.2,0.8,0.6,1.4,1.2,1.8c2.9,2.5,5.9,4.9,8.8,7.3c2.9,2.4,6.3,4.3,10,5.8
			c1.6,0.6,3.1,1.2,4.6,1.7c1.5,0.5,3.2,0.4,5.1-0.4c1.9-0.8,2.9-2,3.1-3.6c-0.1-2,0.1-4,0.6-6.2c0.3-2.2,0.7-4.3,1.1-6.4
			c0.4-2.1,0.8-4.1,1-6.2c0.2-1.6,0.3-3.2,0.4-4.6c0.1-1.5,0.2-3,0.4-4.6c0-0.9,0.1-1.7,0.3-2.5c0.2-0.8,0.3-1.7,0.6-2.7
			c5.3,4.7,9.3,10,11.8,15.9c1.2,2.5,2.2,4.6,3.2,6.2c0.9,1.6,1.9,3,2.9,4.2c1,1.2,2,2.3,3.1,3.4c1.1,1.1,2.4,2.4,3.9,4.1
			c0.6,0.7,1.1,1.4,1.4,2c0.3,0.6,0.9,1.1,1.8,1.4c1,0.4,2,0.6,2.9,0.5c0.9,0,1.7-0.4,2.1-1.2c0.5-0.9,0.5-1.8-0.1-2.5
			c-0.6-0.7-1.1-1.5-1.6-2.4c-0.3-1-0.5-1.8-0.7-2.5c-0.2-0.7-0.6-1.6-1.2-2.6c-0.6-0.9-1.1-1.6-1.5-2.2c-0.4-0.6-0.9-1.4-1.5-2.2
			c-0.9-1.4-1.9-2.6-2.9-3.5c-1-1-1.7-2.1-2.2-3.4c-0.4-0.8-0.8-1.4-1-1.8c-0.2-0.3-0.5-0.7-0.7-0.9c-0.3-0.3-0.5-0.6-0.7-1.1
			c-0.2-0.4-0.5-1-0.8-1.8c-0.4-1.1-0.7-2-0.8-2.7c-0.2-0.6-0.4-1.2-0.7-1.7c-0.3-0.5-0.6-1.1-1.1-1.7c-0.4-0.6-1-1.4-1.8-2.3
			c-2-2.5-3.7-5.3-5.1-8.3c-0.2-0.5-0.1-0.9,0.5-1.1c0.5-0.3,1-0.4,1.5-0.5c3.1-0.4,6.2-0.7,9.2-0.9c3-0.2,6.1-0.7,9.2-1.5
			c2.9-0.7,5.6-1.9,8.2-3.6c2.6-1.7,4.5-3.9,5.8-6.6C934.8,259,935.2,256.1,934.5,253.1z M893.4,164.7c-0.4-2-0.8-4.1-1.3-6.3
			c-0.2-0.8,0.1-2,1-3.6c0.8-1.6,1.5-2.6,2.1-2.9c0.7-0.4,1.3-0.5,1.5-0.1c1.6,1.1,3.1,2.1,4.5,3.2c1.4,1.1,2.8,2.2,4.2,3.2
			c0.1,0.2,0.2,0.4,0.1,0.6c0,0.2,0,0.5,0.1,0.8c0.7,2.4,1.7,4.6,3,6.8c1.3,2.1,2.6,4.3,3.8,6.5c0.9,2,1.7,3.9,2.3,5.6
			c0.2,0.6,0.2,1.2,0.1,1.8c-0.1,0.6-0.2,1.2-0.1,1.8c-0.2,0.7-0.2,1.3-0.3,1.9c0,0.5,0,1.1,0,1.7c0,0.1,0.1,0.2,0.4,0.3
			c0.1,0,0.2,0,0.2,0.1c-0.5,1.4-0.8,2.7-1.1,3.9c-0.2,1.2-0.6,2.5-1.1,3.9c-0.2,0.3-0.4,0.6-0.7,1c-0.3,0.4-0.6,0.8-1,1.1
			c-1.1,1.6-2.3,3.2-3.3,4.9c-1.1,1.7-2.3,3.3-3.5,4.7c-1.1,1.1-2.2,2.2-3.5,3.1c-1.2,0.9-2.4,1.9-3.4,2.9c-0.2,0-0.3-0.1-0.3-0.2
			c-0.1-0.1-0.2-0.1-0.3-0.2c-0.2-0.5-0.3-1-0.2-1.4c0.1-0.4,0-0.9-0.2-1.4c-0.5-2.9-1.1-5.9-1.7-8.7c-0.6-2.9-1.2-5.7-2-8.6
			c-0.4-1.4-0.7-2.9-0.9-4.3c-0.2-1.5-0.2-3,0.2-4.6c0.3-1.3,0.4-2.6,0.5-3.9c0.1-1.3,0.2-2.6,0.2-3.8c0.2-1.2,0.5-2.4,0.7-3.7
			C894,168.8,893.9,166.7,893.4,164.7z M732.3,196.7c-0.2,1.3-0.3,2.6-0.3,3.9c-0.1,0.6-0.2,1.2-0.3,1.7l0.4,12.6
			c-0.1,0.2-0.1,0.4-0.3,0.6c-1.6,3-3.2,6-4.6,9.2c-1.5,3.1-2.7,5.8-4.3,8.6c-1.9,3.3-5,6.8-6.7,9.8c-1.6,2.9-3.3,5.1-6,7.4
			c-4.2,4-6.6-1-6.9-3.7c-0.3-2,0-4.2,0-6.9c-0.1-1,0.4-3.8,0.3-4.4c-0.1-0.5-1.1-0.8-1-1.8c-0.1-1.2,0-2.3,0.3-3.2
			c0.2-0.9,0.5-2,0.8-3.4c0.6-3,1-5.7,1.1-8.1c0.1-2.4,0.5-4.9,1-7.5c0.3-1.6,0.8-3,1.4-4.4c0.6-1.3,1.3-2.6,2.1-4
			c1-2.1,1.8-4.1,2.4-6c0.6-1.9,1.8-3.6,3.6-4.9c0.9-0.9,1.8-1.8,2.5-2.8c0.8-1,1.6-1.7,2.5-2.2c1.1-0.6,2.1-1.1,3.3-1.3
			c1.1-0.2,2.3-0.4,3.5-0.7c0,0.3-0.1,0.6-0.1,0.9c1.7-0.5,3.1,0,4.1,1.6c0.5,0.8,1,1.4,1.5,2.1l-0.1,0.3c0.1,0.2,0.2,0.4,0.1,0.8
			c-0.1,0.7-0.1,1.2,0,1.7C732.6,194,732.5,195.4,732.3,196.7z M922.1,250.8c-0.6,0.8-1.6,1.5-2.9,2.1c-4.2,2.2-8.8,4.3-13.8,6.3
			c-5,1.9-10.1,2.8-15.1,2.5c0.6-2.1,1.4-4.3,2.4-6.5c1-2.2,2.3-4.2,4-5.9c2.3-2.5,4.8-4.3,7.6-5.3c2.8-1,6.1-1.5,9.9-1.4
			c2.5,0.1,4.7,0.9,6.5,2.3c1,0.7,1.6,1.5,1.8,2.6C922.8,248.7,922.6,249.8,922.1,250.8z"/>
	</g>
	<g>
		<path fill="#FFFFFF" d="M292.2,49.3h-2.4c-0.6,0-0.8-0.1-0.9-0.5c-0.1-0.3-0.3-1.4-0.5-3.3h-8.4v28c0,0,0.2,0,0.6,0.1c1.3,0.2,2.1,0.4,2.5,0.5
			c0.3,0.1,0.5,0.4,0.5,0.9v2.1h-12.1V75c0-0.5,0.3-0.9,0.8-1l2.7-0.5v-28h-8.4c-0.2,1.9-0.3,3-0.4,3.3c-0.1,0.3-0.4,0.5-1,0.5h-2.4
			v-7.9h29.4V49.3z"/>
		<path fill="#FFFFFF" d="M333.2,73.5c1.6,0.3,2.6,0.5,3,0.6c0.4,0.1,0.6,0.4,0.6,0.9v2.1h-12.1V75c0-0.5,0.3-0.8,0.8-0.9l2.8-0.5V60.9h-19.2v12.6
			c2.4,0.5,3.6,1,3.6,1.5v2.1h-12V75c0-0.5,0.2-0.8,0.7-0.9l2.8-0.5V45c-1.6-0.3-2.6-0.5-3-0.6c-0.4-0.1-0.6-0.4-0.6-0.9v-2.1h12
			v2.1c0,0.5-0.1,0.8-0.5,0.9c-0.3,0.1-1.3,0.3-3,0.6v12.3h19.2V45c-1.6-0.3-2.6-0.5-3-0.6c-0.4-0.1-0.6-0.4-0.6-0.9v-2.1h12.1v2.1
			c0,0.5-0.2,0.8-0.7,0.9l-2.9,0.5V73.5z"/>
		<path fill="#FFFFFF" d="M371.6,50.1h-2.4c-0.6,0-0.9-0.2-1-0.8c0-0.1-0.1-1.4-0.3-3.8h-13.4v11.9h13.2V61h-13.2v12.2h13.4
			c0.2-2.2,0.3-3.4,0.3-3.6c0.1-0.6,0.5-0.8,1.1-0.8h2.4v8.3H346V75c0-0.5,0.2-0.8,0.7-0.9l2.8-0.5V45.1c-1.6-0.3-2.5-0.5-2.8-0.6
			c-0.5-0.1-0.7-0.4-0.7-0.9v-2.1h25.6V50.1z"/>
		<path fill="#FFFFFF" d="M426.5,51.9h-2.4c-0.6,0-1-0.3-1.1-0.9l-0.4-4.5c-7.5-2.4-13-1.5-16.8,2.4c-2.4,2.6-3.6,6-3.6,10.3c0,8.3,4.8,14,12.4,14
			c3.7,0,6.5-0.7,9.1-3.2c0.7-0.6,1.2-0.4,1.6-0.1l1.9,2.1c-3.1,3.6-7.4,5.4-12.9,5.4c-10.6,0-17-7.8-17-18.2c0-5.4,1.7-9.8,5-13.2
			c3.3-3.4,7.8-5.1,13.3-5.1c2.7-0.1,6.4,0.8,11,2.5V51.9z"/>
		<path fill="#FFFFFF" d="M468.9,66.7c-0.8,2.2-2,4.2-3.6,5.8c-1.5,1.6-3.3,2.8-5.5,3.7s-4.6,1.4-7.2,1.4s-5-0.5-7.2-1.4s-4-2.1-5.6-3.7
			c-1.5-1.6-2.7-3.5-3.6-5.8c-0.8-2.2-1.3-4.7-1.3-7.4c0-2.7,0.4-5.1,1.3-7.4c0.8-2.2,2-4.2,3.6-5.8c1.5-1.6,3.4-2.9,5.6-3.8
			c2.2-0.9,4.6-1.3,7.2-1.3s5,0.4,7.2,1.3c2.2,0.9,4,2.1,5.6,3.7c1.5,1.6,2.7,3.5,3.6,5.8c0.8,2.2,1.2,4.7,1.2,7.4l-0.1,0.1
			C470.1,62.1,469.7,64.5,468.9,66.7z M464.2,53.5c-0.6-1.7-1.4-3.2-2.5-4.4c-1.1-1.2-2.4-2.1-4-2.7c-1.6-0.6-3.4-0.9-5.3-0.9
			c-1.9,0-3.6,0.3-5.2,0.9s-2.9,1.5-4,2.7c-1.1,1.2-2,2.7-2.6,4.4c-0.6,1.7-0.9,3.7-0.9,5.9c0,2.2,0.3,4.1,0.9,5.9
			c0.6,1.7,1.5,3.2,2.6,4.4c1.1,1.2,2.4,2.1,4,2.8c1.6,0.6,3.3,1,5.2,1c1.9,0,3.6-0.3,5.2-1c1.6-0.6,2.9-1.6,4-2.8
			c1.1-1.2,1.9-2.6,2.5-4.4c0.6-1.7,0.9-3.7,0.9-5.9h-0.1C465.1,57.2,464.8,55.2,464.2,53.5z"/>
		<path fill="#FFFFFF" d="M514.7,43.6c0,0.5-0.3,0.8-0.8,0.9l-2.8,0.6v32h-2.4c-0.7,0-1.2-0.2-1.7-0.8l-20.7-26.9c0.1,0.8,0.1,1.6,0.1,2.3v21.8
			c2,0.3,3.1,0.5,3.3,0.6c0.5,0.1,0.7,0.4,0.7,0.9v2.1h-11.9V75c0-0.5,0.2-0.8,0.7-0.9l2.8-0.6V45.1c-1.6-0.3-2.5-0.5-2.8-0.6
			c-0.5-0.1-0.7-0.4-0.7-0.9v-2.1h6.1c0.4,0,0.7,0.1,0.9,0.1c0.2,0.1,0.4,0.3,0.7,0.6l20.6,26.9c-0.1-0.7-0.1-1.5-0.1-2.4V45.1
			c-1.9-0.3-3-0.5-3.3-0.6c-0.5-0.1-0.8-0.4-0.8-0.9v-2.2h12V43.6z"/>
		<path fill="#FFFFFF" d="M552.3,49.3h-2.4c-0.6,0-0.8-0.1-0.9-0.5c-0.1-0.3-0.3-1.4-0.5-3.3h-8.4v28c0,0,0.2,0,0.6,0.1c1.3,0.2,2.1,0.4,2.5,0.5
			c0.3,0.1,0.5,0.4,0.5,0.9v2.1h-12.1V75c0-0.5,0.3-0.9,0.8-1l2.7-0.5v-28h-8.4c-0.2,1.9-0.3,3-0.4,3.3c-0.1,0.3-0.4,0.5-1,0.5h-2.4
			v-7.9h29.4V49.3z"/>
		<path fill="#FFFFFF" d="M593.1,75.1v2h-10.3v-2c0-0.4,0.2-0.7,0.7-0.8l2-0.6l-2.8-7.2h-15.4l-2.8,7.2l2,0.6c0.4,0.1,0.6,0.3,0.6,0.8v2h-10.2v-2
			c0-0.4,0.2-0.7,0.6-0.8l2-0.6l13-32.3h4.9l12.9,32.3l2,0.6C592.9,74.4,593.1,74.7,593.1,75.1z M576.2,49.4c-0.3-0.9-0.7-2-1.1-3.4
			c-0.3,1.3-0.6,2.4-1,3.4l-5.3,13.7h12.7L576.2,49.4z"/>
		<path fill="#FFFFFF" d="M610.4,73.5c1.6,0.3,2.6,0.5,3,0.6c0.4,0.1,0.6,0.4,0.6,0.9v2.1h-12V75c0-0.5,0.2-0.8,0.7-0.9l2.9-0.5V45
			c-1.6-0.3-2.6-0.5-3-0.6c-0.4-0.1-0.6-0.4-0.6-0.9v-2.1h12v2.1c0,0.5-0.2,0.8-0.7,0.9l-2.9,0.5V73.5z"/>
		<path fill="#FFFFFF" d="M659.4,43.6c0,0.5-0.3,0.8-0.8,0.9l-2.8,0.6v32h-2.4c-0.7,0-1.2-0.2-1.7-0.8l-20.7-26.9c0.1,0.8,0.1,1.6,0.1,2.3v21.8
			c2,0.3,3.1,0.5,3.3,0.6c0.5,0.1,0.7,0.4,0.7,0.9v2.1h-11.9V75c0-0.5,0.2-0.8,0.7-0.9l2.8-0.6V45.1c-1.6-0.3-2.5-0.5-2.8-0.6
			c-0.5-0.1-0.7-0.4-0.7-0.9v-2.1h6.1c0.4,0,0.7,0.1,0.9,0.1c0.2,0.1,0.4,0.3,0.7,0.6l20.6,26.9c-0.1-0.7-0.1-1.5-0.1-2.4V45.1
			c-1.9-0.3-3-0.5-3.3-0.6c-0.5-0.1-0.8-0.4-0.8-0.9v-2.2h12V43.6z"/>
		<path fill="#FFFFFF" d="M693.4,50.1H691c-0.6,0-0.9-0.2-1-0.8c0-0.1-0.1-1.4-0.3-3.8h-13.4v11.9h13.2V61h-13.2v12.2h13.4c0.2-2.2,0.3-3.4,0.3-3.6
			c0.1-0.6,0.5-0.8,1.1-0.8h2.4v8.3h-25.6V75c0-0.5,0.2-0.8,0.7-0.9l2.8-0.5V45.1c-1.6-0.3-2.5-0.5-2.8-0.6
			c-0.5-0.1-0.7-0.4-0.7-0.9v-2.1h25.6V50.1z"/>
		<path fill="#FFFFFF" d="M733.3,74.9v2.2h-5.2c-0.9,0-1.5-0.3-1.9-1L717,63.3c-0.3-0.4-0.6-0.6-0.9-0.8c-0.3-0.2-0.8-0.3-1.5-0.3h-3.2v11.3
			l2.8,0.6c0.4,0.1,0.8,0.4,0.8,0.9v2.1h-12v-2.1c0-0.4,0.3-0.8,0.7-0.9l2.9-0.6V45l-2.9-0.6c-0.4-0.1-0.7-0.4-0.7-0.9v-2.2h13.2
			c2.3,0,4.2,0.2,5.9,0.7c1.6,0.4,3,1.1,4.1,2c1.1,0.9,1.9,1.9,2.4,3.1c0.5,1.2,0.7,2.6,0.7,4.1c0,1.3-0.2,2.4-0.6,3.5
			c-0.4,1.1-1,2.1-1.7,3c-0.7,0.9-1.6,1.6-2.7,2.2c-1.1,0.6-2.3,1.1-3.7,1.4c0.6,0.3,1.1,0.8,1.6,1.5l7.7,10.6
			c0.3,0.1,2.4,0.4,2.8,0.5h0C733,74.1,733.3,74.5,733.3,74.9z M719.6,58.2c1.1-0.3,2-0.9,2.7-1.5c0.7-0.6,1.2-1.3,1.6-2.2
			c0.4-0.9,0.5-1.8,0.5-2.9c0-2.1-0.7-3.7-2.1-4.8c-1.4-1.1-3.4-1.6-6.2-1.6h-4.8v13.5h4.5C717.3,58.7,718.6,58.5,719.6,58.2z"/>
	</g>
	<g>
		<path fill="#FFFFFF" d="M324.5,377.8V370H319c-0.3,0-0.6-0.1-0.8-0.3c-0.2-0.2-0.3-0.3-0.3-0.6v-2.7h11V380c-3.6,2.6-8.1,3.8-13.6,3.8
			c-5.2,0-9.4-1.6-12.7-5c-3.3-3.4-4.9-7.8-4.9-13.2c0-5.5,1.6-9.9,4.9-13.2c3.3-3.4,7.8-5.1,13.4-5.1c3.9,0,8.1,0.9,12.6,2.6v8.3
			h-2.4c-0.6,0-0.9-0.2-1-0.8c0-0.2-0.2-1.7-0.4-4.5c-0.8-0.2-1.3-0.4-1.8-0.5c-1.9-0.5-4-0.8-6.4-0.8c-2.4,0-4.5,0.3-6.1,1
			c-1.6,0.6-3,1.6-4.1,2.8c-2.4,2.5-3.5,6-3.5,10.3c0,4.5,1.2,8,3.6,10.6c2.4,2.5,5.5,3.8,9.4,3.8
			C319,379.9,321.9,379.2,324.5,377.8z"/>
		<path fill="#FFFFFF" d="M373.2,373c-0.8,2.2-2,4.2-3.6,5.8c-1.5,1.6-3.3,2.8-5.5,3.7c-2.2,0.9-4.6,1.4-7.2,1.4c-2.6,0-5-0.5-7.2-1.4
			c-2.2-0.9-4-2.1-5.6-3.7c-1.5-1.6-2.7-3.5-3.6-5.8c-0.8-2.2-1.3-4.7-1.3-7.4s0.4-5.1,1.3-7.4c0.8-2.2,2-4.2,3.6-5.8
			c1.5-1.6,3.4-2.9,5.6-3.8c2.2-0.9,4.6-1.3,7.2-1.3c2.6,0,5,0.4,7.2,1.3c2.2,0.9,4,2.1,5.6,3.7c1.5,1.6,2.7,3.5,3.6,5.8
			c0.8,2.2,1.2,4.7,1.2,7.4l-0.1,0.1C374.5,368.4,374.1,370.8,373.2,373z M368.6,359.8c-0.6-1.7-1.4-3.2-2.5-4.4
			c-1.1-1.2-2.4-2.1-4-2.7c-1.6-0.6-3.4-0.9-5.3-0.9c-1.9,0-3.6,0.3-5.2,0.9c-1.6,0.6-2.9,1.5-4,2.7c-1.1,1.2-2,2.7-2.6,4.4
			c-0.6,1.7-0.9,3.7-0.9,5.9c0,2.2,0.3,4.1,0.9,5.9c0.6,1.7,1.5,3.2,2.6,4.4c1.1,1.2,2.4,2.1,4,2.8c1.6,0.6,3.3,1,5.2,1
			c1.9,0,3.6-0.3,5.2-1c1.6-0.6,2.9-1.6,4-2.8c1.1-1.2,1.9-2.6,2.5-4.4c0.6-1.7,0.9-3.7,0.9-5.9h0
			C369.5,363.5,369.2,361.5,368.6,359.8z"/>
		<path fill="#FFFFFF" d="M418.2,349.9c0,0.5-0.3,0.8-0.8,0.9l-2.8,0.5v18.1c0,4.2-1.3,7.6-3.8,10.3c-2.6,2.7-6.1,4.1-10.4,4.1
			c-4.3,0-7.8-1.4-10.4-4.1c-2.5-2.7-3.8-6.1-3.8-10.3v-18.1c-1.6-0.3-2.5-0.5-2.8-0.6c-0.5-0.1-0.7-0.4-0.7-0.9v-2.1h12.5v2.1
			c0,0.5-0.3,0.8-0.8,0.9c-0.2,0-1.3,0.2-3.3,0.5v18c0,3,0.8,5.5,2.5,7.4c1.7,1.9,4,2.8,6.9,2.8c2.9,0,5.2-0.9,6.9-2.8
			c1.6-1.8,2.5-4.3,2.5-7.3v-18.1c-1.9-0.3-3-0.5-3.3-0.5c-0.5-0.1-0.8-0.4-0.8-0.9v-2.1h12.5V349.9z"/>
		<path fill="#FFFFFF" d="M457,381.2v2.2h-5.2c-0.9,0-1.5-0.3-1.9-1l-9.3-12.8c-0.3-0.4-0.6-0.6-0.9-0.8c-0.3-0.2-0.8-0.3-1.5-0.3h-3.2v11.3
			l2.8,0.6c0.4,0.1,0.8,0.4,0.8,0.9v2.1h-12v-2.1c0-0.4,0.3-0.8,0.7-0.9l2.9-0.6v-28.4l-2.9-0.6c-0.4-0.1-0.7-0.4-0.7-0.9v-2.2h13.2
			c2.3,0,4.2,0.2,5.9,0.7c1.6,0.4,3,1.1,4.1,2c1.1,0.9,1.9,1.9,2.4,3.1c0.5,1.2,0.7,2.6,0.7,4.1c0,1.3-0.2,2.4-0.6,3.5
			c-0.4,1.1-1,2.1-1.7,3c-0.7,0.9-1.6,1.6-2.7,2.2c-1.1,0.6-2.3,1.1-3.7,1.4c0.6,0.3,1.1,0.8,1.6,1.5l7.7,10.6
			c0.3,0.1,2.4,0.4,2.8,0.5h0C456.7,380.4,457,380.8,457,381.2z M443.3,364.5c1.1-0.3,2-0.9,2.7-1.5c0.7-0.6,1.2-1.3,1.6-2.2
			c0.4-0.9,0.5-1.8,0.5-2.9c0-2.1-0.7-3.7-2.1-4.8c-1.4-1.1-3.4-1.6-6.2-1.6h-4.8V365h4.5C441,365,442.2,364.8,443.3,364.5z"/>
		<path fill="#FFFFFF" d="M506.8,351.3v28.4c1.6,0.3,2.5,0.5,2.8,0.6c0.5,0.1,0.8,0.4,0.8,0.9v2.2h-12v-2.2c0-0.5,0.2-0.8,0.7-0.9l3.3-0.6v-22.6
			c0-0.7,0-1.5,0.1-2.3l-12.3,22.3c-0.4,0.7-0.9,1.1-1.7,1.1H488c-0.7,0-1.4-0.4-1.8-1.1l-12.4-22.3c0.1,0.8,0.1,1.5,0.1,2.2v22.6
			c1.8,0.3,2.9,0.5,3.4,0.6c0.4,0.1,0.6,0.4,0.6,0.9v2.2h-11.9v-2.2c0-0.5,0.3-0.8,0.8-0.9l2.8-0.6v-28.4c-1.6-0.3-2.5-0.5-2.8-0.6
			c-0.5-0.1-0.8-0.4-0.8-0.9v-2.2h7.2c0.4,0,0.8,0.1,1,0.1c0.2,0.1,0.4,0.2,0.6,0.6l12.3,22c0.3,0.5,0.7,1.4,1.1,2.6
			c0.3-1,0.7-1.8,1.1-2.6l12.1-22c0.2-0.4,0.5-0.5,0.7-0.6c0.2-0.1,0.6-0.1,1-0.1h7.2v2.2c0,0.5-0.3,0.8-0.8,0.9L506.8,351.3z"/>
		<path fill="#FFFFFF" d="M545.2,356.4h-2.4c-0.6,0-0.9-0.2-1-0.8c0-0.1-0.1-1.4-0.3-3.8h-13.4v11.9h13.2v3.8h-13.2v12.2h13.4
			c0.2-2.2,0.3-3.4,0.3-3.6c0.1-0.6,0.5-0.8,1.1-0.8h2.4v8.3h-25.6v-2.1c0-0.5,0.2-0.8,0.7-0.9l2.8-0.5v-28.4
			c-1.6-0.3-2.5-0.5-2.8-0.6c-0.5-0.1-0.7-0.4-0.7-0.9v-2.1h25.6V356.4z"/>
		<path fill="#FFFFFF" d="M583.6,355.6h-2.4c-0.6,0-0.8-0.1-0.9-0.5c-0.1-0.3-0.3-1.4-0.5-3.3h-8.4v28c0,0,0.2,0,0.6,0.1c1.3,0.2,2.1,0.4,2.5,0.5
			c0.3,0.1,0.5,0.4,0.5,0.9v2.1h-12.1v-2.1c0-0.5,0.3-0.9,0.8-1l2.7-0.5v-28H558c-0.2,1.9-0.3,3-0.4,3.3c-0.1,0.3-0.4,0.5-1,0.5
			h-2.4v-7.9h29.4V355.6z"/>
		<path fill="#FFFFFF" d="M649.5,351.3v28.4c1.6,0.3,2.5,0.5,2.8,0.6c0.5,0.1,0.8,0.4,0.8,0.9v2.2h-12v-2.2c0-0.5,0.2-0.8,0.7-0.9l3.3-0.6v-22.6
			c0-0.7,0-1.5,0.1-2.3l-12.3,22.3c-0.4,0.7-0.9,1.1-1.7,1.1h-0.7c-0.7,0-1.4-0.4-1.8-1.1l-12.4-22.3c0.1,0.8,0.1,1.5,0.1,2.2v22.6
			c1.8,0.3,2.9,0.5,3.4,0.6c0.4,0.1,0.6,0.4,0.6,0.9v2.2h-11.9v-2.2c0-0.5,0.3-0.8,0.8-0.9l2.8-0.6v-28.4c-1.6-0.3-2.5-0.5-2.8-0.6
			c-0.5-0.1-0.8-0.4-0.8-0.9v-2.2h7.2c0.4,0,0.8,0.1,1,0.1c0.2,0.1,0.4,0.2,0.6,0.6l12.3,22c0.3,0.5,0.7,1.4,1.1,2.6
			c0.3-1,0.7-1.8,1.1-2.6l12.1-22c0.2-0.4,0.5-0.5,0.7-0.6c0.2-0.1,0.6-0.1,1-0.1h7.2v2.2c0,0.5-0.3,0.8-0.8,0.9L649.5,351.3z"/>
		<path fill="#FFFFFF" d="M670.7,379.8c1.6,0.3,2.6,0.5,3,0.6c0.4,0.1,0.6,0.4,0.6,0.9v2.1h-12v-2.1c0-0.5,0.2-0.8,0.7-0.9l2.9-0.5v-28.4
			c-1.6-0.3-2.6-0.5-3-0.6c-0.4-0.1-0.6-0.4-0.6-0.9v-2.1h12v2.1c0,0.5-0.2,0.8-0.7,0.9l-2.9,0.5V379.8z"/>
		<path fill="#FFFFFF" d="M717.9,381.3v2.1h-13.1v-2.1c0-0.5,0.2-0.8,0.7-0.9c0.2,0,0.7-0.1,1.5-0.3c0.8-0.2,1.3-0.2,1.3-0.2l-7.8-12.3
			c-0.1,0.3-0.2,0.7-0.4,1l-7.5,11.3c0.1,0,1,0.2,2.8,0.5c0.5,0.1,0.7,0.4,0.7,0.9v2.1h-12.9v-2.1c0-0.5,0.3-0.8,0.8-0.9
			c0.1,0,1.2-0.2,3.3-0.5l9.9-14.7l-9.3-13.7c-1.9-0.3-3-0.5-3.3-0.6c-0.5-0.1-0.7-0.4-0.7-0.9v-2.1h12.7v2.1c0,0.5-0.3,0.8-0.8,0.9
			l-2.4,0.4l7.4,11.5c0.1-0.3,0.3-0.8,0.5-1.2l6.8-10.2c-0.6-0.1-1.5-0.3-2.8-0.6c-0.5-0.1-0.8-0.4-0.8-0.9v-2.1h12.9v2.1
			c0,0.5-0.2,0.8-0.6,0.9c-0.4,0.1-1.5,0.3-3.4,0.6l-9.3,13.5l9.8,14.9c1.9,0.3,3,0.5,3.3,0.6v0.1
			C717.7,380.5,717.9,380.8,717.9,381.3z"/>
	</g>
</g>
</svg>
